<svg width="422" height="403" viewBox="0 0 422 403" fill="none" xmlns="http://www.w3.org/2000/svg">
<path opacity="0.24" d="M211.269 397.829C327.49 397.829 421.706 386.668 421.706 372.901C421.706 359.133 327.49 347.973 211.269 347.973C95.0479 347.973 0.832031 359.133 0.832031 372.901C0.832031 386.668 95.0479 397.829 211.269 397.829Z" fill="#52509E"/>
<path d="M131.109 368.256H364.144C377.265 368.256 387.902 357.619 387.902 344.498V333.276C387.902 320.155 377.265 309.518 364.144 309.518H131.109V368.256Z" fill="#DC459F"/>
<path d="M124.449 315.701C133.621 333.242 133.04 348.571 124.449 362.082V368.263H248.264C264.482 368.263 277.635 355.11 277.635 338.892C277.635 330.783 274.347 323.44 269.031 318.124C263.715 312.809 256.373 309.52 248.263 309.52H124.449V315.701Z" fill="#E679BA"/>
<path d="M271.456 338.692V338.885C271.456 351.667 261.044 362.079 248.262 362.079H124.453C129.069 354.829 131.367 347.05 131.093 338.692C130.859 331.472 128.703 323.826 124.453 315.701H248.262C260.983 315.702 271.354 325.992 271.456 338.692Z" fill="#FAF9FC"/>
<path opacity="0.24" d="M271.456 338.692H131.093C130.859 331.472 128.703 323.826 124.453 315.701H248.262C260.983 315.702 271.354 325.992 271.456 338.692Z" fill="#52509E"/>
<path d="M192.25 309.624H365.559V305.495C361.964 298.509 361.519 285.439 365.559 276.647V272.518H192.25C166.904 272.518 164.631 309.625 192.25 309.624Z" fill="#524A87"/>
<path d="M330.301 285.582V296.561C330.301 301.491 334.306 305.496 339.236 305.496H365.559C361.964 298.51 361.519 285.44 365.559 276.648H339.236C334.306 276.647 330.301 280.642 330.301 285.582Z" fill="#FAF9FC"/>
<path d="M310.599 240.84H121.402V272.623H310.599V240.84Z" fill="#8697E5"/>
<path d="M297.36 243.846H270.32V269.616H297.36V243.846Z" fill="#FFEA29"/>
<path d="M335.854 241.895H171.784C160.301 241.895 150.992 232.586 150.992 221.103V220.403C150.992 208.92 160.301 199.611 171.784 199.611H335.854V241.895Z" fill="#DC459F"/>
<path d="M340.652 204.059C334.049 216.687 334.467 227.722 340.652 237.448V241.898H251.519C239.844 241.898 230.375 232.429 230.375 220.754C230.375 214.916 232.742 209.63 236.569 205.803C240.396 201.976 245.682 199.609 251.519 199.609H340.652V204.059Z" fill="#E679BA"/>
<path d="M340.655 237.444H251.52C242.318 237.444 234.824 229.951 234.824 220.749C234.824 218.441 235.292 216.244 236.146 214.241C238.688 208.262 244.626 204.062 251.52 204.062H340.655C338.815 207.57 337.523 210.967 336.75 214.241C334.726 222.732 336.191 230.428 340.655 237.444Z" fill="#FAF9FC"/>
<path opacity="0.24" d="M340.655 204.062C338.815 207.57 337.523 210.967 336.75 214.241H236.145C238.687 208.262 244.625 204.062 251.519 204.062H340.655Z" fill="#52509E"/>
<path d="M193.737 116.93H108.469V135.937H193.737V116.93Z" fill="#524A87"/>
<path d="M241.935 347.51H52.7383V379.293H241.935V347.51Z" fill="#524A87"/>
<path d="M228.394 350.518H216V376.288H228.394V350.518Z" fill="#FFEA29"/>
<path d="M209.007 350.518H196.613V376.288H209.007V350.518Z" fill="#FFEA29"/>
<path d="M218.944 331.616V331.625C218.944 340.4 211.834 347.51 203.059 347.51H29.75V343.381C33.345 336.395 33.79 328.653 29.75 319.861V315.732H203.059C211.833 315.731 218.944 322.842 218.944 331.616Z" fill="#7D5FC3"/>
<path d="M65.0101 328.798V334.441C65.0101 339.373 61.0041 343.379 56.0721 343.379H29.7461C31.6481 339.688 32.6751 335.783 32.6131 331.624C32.5621 327.913 31.6471 324.008 29.7461 319.859H56.0721C61.0041 319.86 65.0101 323.857 65.0101 328.798Z" fill="#FAF9FC"/>
<path d="M197.474 338.689H80.2305C82.5445 333.978 82.5445 329.266 80.2305 324.555H197.474C200.83 330.964 199.925 335.218 197.474 338.689Z" fill="#FFEA29"/>
<path opacity="0.24" d="M65.0091 328.799V331.626H32.6131C32.5621 327.915 31.6471 324.01 29.7461 319.861H56.0721C61.0031 319.861 65.0091 323.858 65.0091 328.799Z" fill="#52509E"/>
<path d="M196.341 151.822V151.831C196.341 160.606 189.231 167.715 180.456 167.715H80.2695V163.587C83.8645 156.601 84.3095 148.858 80.2695 140.066V135.938H180.456C189.23 135.938 196.341 143.048 196.341 151.822Z" fill="#8697E5"/>
<path d="M118.857 148.467V155.186C118.857 161.042 114.096 165.803 108.24 165.803H80.2695V163.587C83.8645 156.601 84.3095 148.859 80.2695 140.067V137.842H108.24C114.096 137.841 118.857 142.593 118.857 148.467Z" fill="#A4A6ED"/>
<path d="M115.534 149.002V154.656C115.534 159.577 111.528 163.584 106.596 163.584H80.2695C82.1705 159.893 83.1975 155.988 83.1365 151.829C83.0855 148.118 82.1705 144.213 80.2695 140.064H106.596C111.528 140.064 115.534 144.06 115.534 149.002Z" fill="#FAF9FC"/>
<path opacity="0.24" d="M115.536 149.002V151.829H83.1404C83.0894 148.118 82.1744 144.213 80.2734 140.064H106.599C111.53 140.064 115.536 144.06 115.536 149.002Z" fill="#52509E"/>
<path d="M238.976 167.716V171.845C234.936 180.637 235.381 188.379 238.976 195.365V199.494H138.791C130.017 199.494 122.906 192.384 122.906 183.609V183.6C122.906 174.826 130.016 167.715 138.791 167.715L238.976 167.716Z" fill="#7D5FC3"/>
<path d="M238.976 171.845C234.936 180.637 235.381 188.379 238.976 195.365V197.35H209.271C203.504 197.35 198.824 192.669 198.824 186.911V180.299C198.824 174.524 203.505 169.852 209.271 169.852H238.976V171.845Z" fill="#815FDC"/>
<path d="M238.979 195.37H212.653C207.721 195.37 203.715 191.364 203.715 186.432V180.778C203.715 180.676 203.715 180.575 203.725 180.473C203.878 175.674 207.823 171.84 212.653 171.84H238.979C237.606 174.84 236.742 177.707 236.366 180.473C235.603 185.832 236.609 190.763 238.979 195.37Z" fill="#FAF9FC"/>
<path opacity="0.24" d="M238.98 171.84C237.607 174.84 236.743 177.707 236.367 180.473H203.727C203.88 175.674 207.825 171.84 212.655 171.84H238.98Z" fill="#52509E"/>
<path d="M139.922 115.967C134.429 115.966 129.352 113.479 125.992 109.141C125.923 109.053 125.855 108.956 125.789 108.857L101.404 77.3766C101.243 77.1826 101.088 76.9946 100.938 76.8016C100.813 76.6396 100.698 76.4856 100.591 76.3276L93.7364 67.4776C93.6084 67.3326 93.4864 67.1816 93.3624 67.0216C93.2104 66.8256 93.0644 66.6246 92.9224 66.4276L63.5805 28.5496C57.6395 20.8806 59.0454 9.80864 66.7144 3.86764C69.8274 1.45664 73.5494 0.181641 77.4784 0.181641C82.9664 0.181641 88.0394 2.66664 91.3964 7.00164L110.22 31.3006C111.03 30.4336 112.207 29.9166 113.444 29.9166C114.311 29.9166 115.139 30.1666 115.836 30.6406C116.691 31.2216 117.186 31.9816 117.509 32.6906C118.255 32.3266 119.086 32.1286 119.934 32.1286C120.319 32.1286 120.703 32.1696 121.075 32.2526C123.096 32.6966 124.716 34.2846 125.2 36.2986C125.384 37.0656 125.377 37.7586 125.37 38.3166C125.43 38.3136 125.55 38.3116 125.55 38.3116C127.742 38.3116 129.735 39.4396 130.825 41.2556C131.68 42.6816 131.891 44.4506 131.449 46.0426C131.503 46.0616 131.556 46.0796 131.607 46.0976C132.632 46.4536 134.036 46.9416 135.074 48.2196C135.942 49.2876 136.325 50.6726 136.151 52.1186C136.002 53.3636 135.438 54.5656 134.595 55.4836C135.543 56.9476 135.736 58.8316 135.04 60.4736C134.794 61.0536 134.445 61.5766 134.021 62.0256L153.643 87.3556C153.686 87.3966 153.76 87.4836 153.831 87.5756C156.711 91.2926 157.971 95.9096 157.378 100.576C156.786 105.242 154.412 109.398 150.693 112.278C150.219 112.645 149.723 112.991 149.217 113.307C146.43 115.046 143.215 115.967 139.922 115.967Z" fill="#FFEA29"/>
<path d="M127.882 107.696L65.4504 27.1023C60.4034 20.5863 61.5934 11.2133 68.1094 6.16528C74.6254 1.11828 83.9984 2.30828 89.0464 8.82428L151.478 89.4183C156.525 95.9343 155.335 105.307 148.819 110.355C142.303 115.402 132.929 114.212 127.882 107.696Z" fill="white"/>
<path d="M148.821 110.355C142.299 115.407 132.916 114.216 127.864 107.694C122.812 101.172 124.003 91.7888 130.525 86.7368C137.047 81.6848 146.43 82.8758 151.482 89.3978C156.534 95.9198 155.343 105.302 148.821 110.355Z" fill="#D1E3F2"/>
<path d="M126.653 57.3667L126.25 56.8457C126.312 56.9107 126.372 56.9877 126.426 57.0587C126.502 57.1577 126.584 57.2627 126.653 57.3667Z" fill="#D1E3F2"/>
<path d="M103.293 75.9481C103.133 75.7561 102.968 75.5581 102.81 75.3541C102.695 75.2061 102.586 75.0661 102.492 74.9141L103.293 75.9481Z" fill="#D1E3F2"/>
<path d="M98.3254 67.374C98.7564 69.224 99.5504 71.018 100.732 72.646L93.0214 62.691C88.5044 56.206 89.8204 47.239 96.1384 42.345C102.561 37.369 111.747 38.46 116.852 44.715L124.493 54.578C123.173 52.932 121.58 51.645 119.826 50.719C114.803 48.07 108.491 48.423 103.714 52.124C98.9364 55.825 97.0164 61.848 98.3254 67.374Z" fill="#CB5C68"/>
<path d="M119.012 47.5034L118.609 46.9824C118.692 47.0754 118.774 47.1814 118.85 47.2794C118.904 47.3504 118.964 47.4274 119.012 47.5034Z" fill="#D1E3F2"/>
<path d="M95.5793 65.993C95.4563 65.863 95.3473 65.723 95.2323 65.575C95.0743 65.371 94.9233 65.162 94.7773 64.959L95.5793 65.993Z" fill="#D1E3F2"/>
<path d="M114.324 51.9408C114.334 52.6098 114.948 53.2638 115.608 53.1568C115.927 53.1048 116.201 52.8998 116.514 52.8218C117.101 52.6758 117.77 53.0668 117.929 53.6518C118.093 54.2558 117.762 54.8708 117.652 55.4868C117.5 56.3338 117.798 57.2478 118.42 57.8428C119.042 58.4378 119.969 58.6948 120.808 58.5048C120.977 58.4668 121.144 58.4118 121.317 58.4008C122.27 58.3398 122.756 59.4938 123.018 60.4118C123.343 61.5508 123.806 62.7358 124.774 63.4198C125.741 64.1038 127.338 63.9928 127.859 62.9288C128.128 62.3798 128.121 61.6228 128.655 61.3238C128.998 61.1318 129.421 61.2248 129.815 61.2368C130.878 61.2698 131.928 60.5968 132.344 59.6188C132.759 58.6398 132.513 57.4178 131.751 56.6758C131.418 56.3518 130.969 56.0598 130.922 55.5978C130.859 54.9878 131.515 54.5918 132.003 54.2208C133.247 53.2748 133.749 51.3028 132.764 50.0898C131.717 48.7998 129.642 48.8868 128.422 47.7588C128.229 47.5798 128.054 47.3558 128.031 47.0938C128.003 46.7718 128.207 46.4818 128.362 46.1988C128.93 45.1638 128.905 43.8288 128.298 42.8168C127.691 41.8048 126.524 41.1538 125.344 41.1678C124.705 41.1758 124.028 41.3568 123.451 41.0818C122.8 40.7718 122.524 39.9848 122.475 39.2658C122.426 38.5468 122.535 37.8108 122.367 37.1098C122.125 36.1028 121.275 35.2688 120.264 35.0468C119.253 34.8248 118.131 35.2248 117.489 36.0368C117.273 36.3098 117.076 36.6478 116.737 36.7298C116.35 36.8238 115.973 36.5258 115.75 36.1958C115.074 35.1968 115.096 33.7138 114.098 33.0358C113.367 32.5388 112.242 32.7738 111.771 33.5218C111.478 33.9868 111.435 34.5618 111.265 35.0848C111.095 35.6078 110.698 36.1438 110.148 36.1478C109.782 36.1508 109.46 35.9148 109.109 35.8118C108.134 35.5248 107.038 36.5388 107.249 37.5328C107.432 38.3938 108.298 38.8928 109.022 39.3938C109.746 39.8948 110.466 40.7288 110.168 41.5568C109.993 42.0418 109.515 42.3478 109.243 42.7858C108.816 43.4728 109.01 44.4748 109.663 44.9518C110.147 45.3058 110.78 45.3648 111.334 45.5948C111.888 45.8248 112.415 46.3938 112.223 46.9618C112.116 47.2798 111.815 47.4908 111.649 47.7828C111.248 48.4878 111.807 49.4278 112.562 49.7248C113.189 49.9718 115.957 49.3268 116.14 49.5958C116.226 49.7278 114.318 51.1288 114.324 51.9408Z" fill="#FF7483"/>
<path d="M128.404 57.5306C126.648 58.8906 121.878 55.6746 117.75 50.3456C113.622 45.0166 111.699 39.5946 113.456 38.2336C115.212 36.8736 119.983 40.0896 124.111 45.4186C128.237 50.7466 130.16 56.1696 128.404 57.5306Z" fill="#FF8A96"/>
<path d="M44.3893 55.431C53.6563 55.291 63.2463 57.989 73.2143 63.98C63.5323 67.984 53.8043 69.816 44.0273 69.234C35.1403 68.706 35.4883 55.565 44.3893 55.431Z" fill="#FFEA29"/>
<path d="M182.81 58.0532C176.55 57.5362 170.258 55.0832 163.93 50.3842C170.726 48.3222 177.408 47.7282 183.966 48.7662C189.925 49.7082 188.823 58.5502 182.81 58.0532Z" fill="#FFEA29"/>
<path d="M55.6489 95.8788C62.4919 87.3988 72.1439 80.7598 85.0559 76.2578C70.7149 87.4638 70.3939 93.0238 62.5139 101.424C55.3529 109.057 49.0749 104.024 55.6489 95.8788Z" fill="#FFEA29"/>
<path d="M175.025 88.1157C167.141 80.5937 156.711 75.2608 143.324 72.4688C158.995 81.7238 160.033 87.1947 168.935 94.5037C177.024 101.146 182.598 95.3417 175.025 88.1157Z" fill="#FFEA29"/>
<path d="M163.808 21.5364C153.143 23.7734 142.84 29.3484 132.957 38.7994C149.461 31.1264 154.558 33.3694 165.622 30.1734C175.679 27.2684 174.053 19.3874 163.808 21.5364Z" fill="#FFEA29"/>
<path d="M114.37 283.465V311.14H124.296V315.788H97.9813V311.14H107.896V283.434C96.3313 282.908 87.4883 279.971 87.4883 276.415C87.4883 272.498 98.2803 269.312 111.607 269.312C124.934 269.312 135.736 272.498 135.736 276.415C135.736 280.064 126.398 283.073 114.37 283.465Z" fill="#E679BA"/>
<path d="M113.317 202.86C113.56 202.783 113.811 202.693 114.063 202.727C114.521 202.788 114.819 203.218 115.107 203.579C116.336 205.118 118.332 205.929 120.301 205.985C121.692 206.025 123.155 205.683 124.173 204.733C125.19 203.783 125.618 202.138 124.908 200.941C126.544 200.638 127.902 199.38 128.602 197.871C129.302 196.362 129.408 194.633 129.204 192.982C128.837 190.007 127.292 186.979 124.563 185.739C124.894 182.827 125.142 179.728 123.832 177.107C122.556 174.552 119.945 172.859 117.194 172.095C114.443 171.33 111.535 171.385 108.685 171.558C108.296 168.808 105.61 166.921 102.922 166.22C98.9086 165.173 94.3875 166.125 91.2475 168.833C88.1065 171.542 86.4976 175.972 87.3336 180.034C85.9196 180.309 84.5236 180.675 83.1566 181.128C81.7796 181.585 80.3716 182.173 79.4476 183.291C78.7266 184.164 78.3686 185.283 78.1836 186.4C77.8446 188.438 78.0356 190.562 78.7316 192.507C76.1996 192.096 73.5026 193.866 72.8726 196.352C72.2426 198.838 73.7716 201.679 76.1936 202.523C75.1196 202.646 74.5046 203.952 74.7516 205.004C74.9986 206.056 75.8396 206.86 76.7056 207.506C78.6356 208.946 80.9086 209.938 83.2896 210.299C86.2626 210.749 89.5635 210.093 91.6225 207.901C93.3935 206.015 93.9926 203.11 93.1116 200.677C94.5946 201.866 96.7275 202.182 98.4935 201.481C100.47 200.697 100.793 199.277 101.785 197.672C102.609 196.34 102.798 196.79 103.81 198.153C106.199 201.369 108.846 204.267 113.317 202.86Z" fill="#FFEF92"/>
<path d="M94.1046 217.381L49.3906 248.306L56.5286 249.521L99.3556 224.45C99.8076 219.96 98.4496 217.223 94.1046 217.381Z" fill="#FFCE63"/>
<path d="M114.37 212.221C109.61 214.529 105.043 215.282 100.949 212.221V200.945L106.391 195.189L106.548 195.006C106.574 195.189 106.574 195.399 106.6 195.582C106.731 197.021 106.914 198.408 107.176 199.689C108.301 205.445 110.708 209.631 114.37 212.221Z" fill="#D1978A"/>
<path d="M107.176 199.688C106.103 204.109 104.481 207.432 100.949 207.197V200.944L106.391 195.188L106.6 195.579C106.731 197.019 106.914 198.406 107.176 199.688Z" fill="#B87C6E"/>
<path d="M95.7768 205.411C86.3808 206.343 81.9158 197.059 90.8788 182.505C91.8438 180.939 93.3318 179.668 95.1108 179.202C99.3448 178.093 102.748 181.407 105.635 187.472C110.851 182.421 113.163 191.005 106.557 195L104.074 199.628C102.391 202.766 99.3208 205.06 95.7768 205.411Z" fill="#D1978A"/>
<path d="M85.1585 262.461L65.7695 280.961L81.9975 309.234L86.3595 306.586L80.8065 282.051L107.924 272.858L107.902 270.426L102.616 262.842L85.1585 262.461Z" fill="#524A87"/>
<path d="M107.165 262.461L85.9648 282.688L118.86 307.91L123.629 305.015L102.407 283.881L115.627 278.099C121.506 275.528 125.54 269.985 126.179 263.601L126.251 262.878L107.165 262.461Z" fill="#655BA6"/>
<path d="M114.371 212.221C131.133 216.171 127.4 243.023 126.645 263.665L81.5078 262.355C91.4638 246.36 98.3238 234.59 94.1038 217.382C95.4858 214.95 97.7538 213.218 100.95 212.221H114.371Z" fill="#FFCE63"/>
<path d="M122.71 221.924C126.588 238.775 126.602 253.74 85.102 248.435L84.457 244.242C100.768 242.725 115.137 239.652 113.378 223.655C113.127 221.373 114.445 219.215 116.649 218.574L116.926 218.493C119.482 217.75 122.113 219.329 122.71 221.924Z" fill="#FFE07F"/>
<path d="M109.854 245.473H35.0078V249.768H109.854V245.473Z" fill="#DC459F"/>
<path d="M28.0977 207.47L35.0067 249.768H86.0117L77.6287 206.949L28.0977 207.47Z" fill="#E679BA"/>
<path d="M61.7204 226.841C61.7204 229.001 59.9694 230.752 57.8094 230.752C55.6494 230.752 53.8984 229.001 53.8984 226.841C53.8984 224.681 55.6494 222.93 57.8094 222.93C59.9694 222.93 61.7204 224.681 61.7204 226.841Z" fill="#524A87"/>
<path d="M90.0117 199.545C90.7127 203.808 99.2447 202.36 99.0077 199.545H90.0117Z" fill="white"/>
<path d="M86.3591 306.586L90.3791 311.168L89.5481 315.686H71.8711L81.9971 309.234L86.3591 306.586Z" fill="white"/>
<path d="M123.627 305.014L127.998 308.976V315.685L111.605 315.731L119.462 310.368L118.858 307.909L123.627 305.014Z" fill="white"/>
<path d="M142.621 249.77V315.725H133.571V265.695H35.0859V315.725H26.0469V249.77H142.621Z" fill="white"/>
<path d="M354.385 180.905C355.146 185.634 355.038 190.508 356.285 195.133C358.261 202.464 363.552 208.591 369.869 212.803C376.186 217.015 383.497 219.492 390.845 221.403C385.062 223.618 379.12 225.42 373.081 226.79C372.417 226.941 371.715 227.085 371.065 226.881C370.542 226.716 370.114 226.343 369.706 225.976C367.275 223.787 364.966 221.463 362.792 219.019C363.497 222.326 365.039 225.451 367.235 228.022C364.08 229.747 360.85 231.335 357.557 232.78C356.925 233.057 356.28 233.332 355.595 233.41C354.503 233.534 353.424 233.146 352.395 232.761C349.958 231.849 347.51 230.902 345.326 229.487C340.411 226.302 337.278 221.064 334.317 216.011C334.593 220.712 335.809 225.355 337.874 229.588C333.422 229.666 328.97 229.745 324.518 229.823C324.084 229.831 323.627 229.833 323.246 229.626C322.84 229.406 322.588 228.988 322.362 228.585C321.328 226.741 320.431 224.81 319.831 222.782C318.843 219.447 318.676 215.929 318.624 212.451C318.532 206.268 318.784 200.079 319.381 193.924C319.876 188.813 320.625 183.661 322.589 178.917C324.553 174.173 327.856 169.823 332.422 167.474C339.78 163.687 348.46 166.568 352.196 173.843C353.326 176.043 353.993 178.47 354.385 180.905Z" fill="#5E476E"/>
<path d="M343.001 208.568C345.22 233.627 352.352 238 360.331 238.814L361.689 245.485C349.613 244.941 336.528 246.348 339.126 217.429L343.001 208.568Z" fill="#6259E4"/>
<path d="M360.328 238.815C371.051 237.015 366.884 244.785 361.686 245.486L360.328 238.815Z" fill="#D1978A"/>
<path d="M351.017 300.869C351.017 300.869 349.737 308.117 351.367 312.108L366.694 312.603C368.802 309.247 365.587 305.766 361.439 306.728L356.732 306.328L355.524 303.604L351.017 300.869Z" fill="#6E63FF"/>
<path d="M335.913 193.192V203.234C331.681 206.393 326.953 205.618 322.027 203.234C325.295 200.92 327.599 197.383 328.92 192.635C329.129 191.87 329.317 191.086 329.476 190.261C329.685 189.208 329.854 188.086 329.983 186.924L335.913 193.192Z" fill="#FFB691"/>
<path d="M335.915 193.192V201.009C332.051 201.089 330.174 197.493 328.922 192.635C329.131 191.87 329.319 191.086 329.478 190.261C329.687 189.208 329.856 188.086 329.985 186.924L335.915 193.192Z" fill="#E69B75"/>
<path d="M337.69 199.945C347.399 203.194 354.356 194.456 348.388 176.909C347.746 175.021 346.478 173.319 344.71 172.397C340.502 170.204 336.105 172.887 331.591 178.604C327.294 172.007 322.781 180.525 328.802 186.34L330.312 191.832C331.336 195.555 334.028 198.719 337.69 199.945Z" fill="#FFB691"/>
<path d="M352.253 255.209L366.247 278.278L355.953 304.121L350.54 302.943L357.394 280.252L328.699 265.967L328.722 263.45L334.191 255.604L352.253 255.209Z" fill="#48B5AA"/>
<path d="M336.431 306.99C336.431 306.99 335.151 315.655 336.781 319.645L352.108 320.14C354.216 316.784 351.001 313.303 346.853 314.265L342.667 313.086L341.366 309.986L336.431 306.99Z" fill="#6E63FF"/>
<path d="M329.485 255.209L345.769 276.681L342.566 310.714L335.29 309.703L335.007 282.13L320.731 271.389C314.649 268.729 310.475 262.994 309.813 256.389L309.738 255.641L329.485 255.209Z" fill="#55D4C8"/>
<path d="M322.029 203.229C304.687 207.316 308.548 235.097 309.33 256.453C307.313 264.814 315.571 279.405 327.476 279.405L366.247 266.63C363.589 262.359 347.631 250.939 345.542 247.079C339.534 235.981 339.759 221.778 342.999 208.569C341.569 206.053 339.223 204.261 335.916 203.229H322.029Z" fill="#6E63FF"/>
<path d="M331.699 228.442C337.408 240.28 340.867 251.574 338.645 261.5L360.322 257.784C360.485 245.441 358.167 233.643 352.244 222.637L331.699 228.442Z" fill="#F0EFFF"/>
<path d="M337.93 226.814C343.335 237.534 343.923 248.303 340.774 259.11L364.742 257.485C364.482 244.441 362.062 232.806 355.5 223.869L337.93 226.814Z" fill="white"/>
<path d="M327.25 295.529C316.487 300.849 312.292 303.779 301.512 300.543L302.229 317.94C315.275 317.784 326.929 315.456 335.917 308.966L327.25 295.529Z" fill="white"/>
<path d="M394.454 316.832C384.27 310.474 379.572 308.447 376.655 297.576L362.234 307.334C369.226 318.348 377.335 327.037 387.581 331.27L394.454 316.832Z" fill="#F0EFFF"/>
<path d="M312.205 209.105C305.597 242.996 319.133 257.841 345.857 249.028L340.739 242.723C322.03 248.069 318.238 231.434 323.15 210.003C324.673 203.355 313.703 201.419 312.205 209.105Z" fill="#847AFF"/>
<path d="M340.738 242.724C349.255 235.322 353.072 244.768 345.856 249.029L340.738 242.724Z" fill="#D1978A"/>
<path d="M336.524 222.139C336.524 224.803 334.364 226.964 331.699 226.964C329.035 226.964 326.875 224.804 326.875 222.139C326.875 219.474 329.035 217.314 331.699 217.314C334.364 217.315 336.524 219.475 336.524 222.139Z" fill="#847AFF"/>
<path d="M301.853 38.218C301.621 38.836 301.389 39.455 301.158 40.073C301.016 39.424 300.698 38.8151 300.248 38.3271C300.176 38.2491 300.088 38.1691 299.982 38.1741C299.865 38.1791 299.782 38.2841 299.717 38.3811C299.266 39.0601 298.957 39.832 298.816 40.635C298.802 40.164 298.552 39.7071 298.165 39.4391C298.061 39.3671 297.941 39.3071 297.815 39.3141C297.624 39.3241 297.476 39.481 297.365 39.636C296.466 40.893 296.638 42.6271 296.004 44.0361C295.819 44.4461 295.572 44.832 295.377 45.235C295.185 45.178 294.985 45.138 294.774 45.138C293.598 45.138 292.645 46.091 292.645 47.267C292.645 47.379 292.661 47.486 292.678 47.594C291.294 48.24 289.866 48.773 288.356 48.947C284.857 49.35 281.436 47.7861 278.429 45.9531C275.421 44.1201 272.544 41.95 269.176 40.92C266.933 40.234 264.526 40.085 262.215 40.491V41.999C264.526 41.593 266.932 41.742 269.176 42.428C272.544 43.458 275.421 45.628 278.429 47.461C281.437 49.294 284.857 50.8581 288.356 50.4541C290.095 50.2541 291.725 49.58 293.305 48.802C293.687 49.167 294.203 49.3951 294.774 49.3951C295.861 49.3951 296.748 48.577 296.877 47.525C297.678 47.284 298.524 46.762 299.224 46.448C299.454 46.345 299.688 46.238 299.872 46.067C300.006 45.943 300.109 45.788 300.21 45.636C300.726 44.861 301.246 44.077 301.583 43.21C302.196 41.636 302.169 39.877 301.853 38.218Z" fill="#FFEA29"/>
<path d="M266.988 31.7109H238.113V60.5859H266.988V31.7109Z" fill="#22374E"/>
<path d="M249.479 59.079C256.002 59.079 261.29 53.7911 261.29 47.268C261.29 40.745 256.002 35.457 249.479 35.457C242.956 35.457 237.668 40.745 237.668 47.268C237.668 53.7911 242.956 59.079 249.479 59.079Z" fill="#2A4461"/>
<path d="M283.808 185.392L279.599 188.649L269.454 196.507L268.466 195.573L267.27 194.443C265.903 193.152 265.887 190.982 267.234 189.671L269.169 187.787L271.741 185.278L268.386 180.811L276.698 175.979L280.089 180.473L283.808 185.392Z" fill="#FFE6FF"/>
<path d="M283.808 185.391L279.599 188.648C277.997 188.025 276.867 186.468 276.867 184.643C276.867 182.641 278.238 180.95 280.088 180.469L283.808 185.391Z" fill="#FF798B"/>
<path d="M270.166 191.21C270.166 192.892 269.516 194.423 268.466 195.571L267.27 194.441C265.903 193.15 265.887 190.98 267.234 189.669L269.169 187.785C269.801 188.772 270.166 189.956 270.166 191.21Z" fill="#FF798B"/>
<path d="M282.539 183.709L267.91 195.044L269.456 196.505L283.81 185.391L282.539 183.709Z" fill="white"/>
<path d="M318.603 149.676L317.877 154.948L316.134 167.661L314.775 167.685L313.13 167.715C311.25 167.75 309.72 166.212 309.763 164.332L309.826 161.632L309.906 158.04L304.383 157.199L306.935 147.93L312.502 148.765L318.603 149.676Z" fill="#FFE6FF"/>
<path d="M318.604 149.677L317.878 154.949C316.298 155.626 314.401 155.305 313.124 154.002C311.722 152.572 311.517 150.405 312.502 148.766L318.604 149.677Z" fill="#FF798B"/>
<path d="M312.936 163.382C314.113 164.583 314.721 166.131 314.775 167.686L313.13 167.716C311.25 167.751 309.72 166.213 309.763 164.333L309.826 161.633C310.969 161.897 312.058 162.486 312.936 163.382Z" fill="#FF798B"/>
<path d="M316.515 149.365L314.004 167.7L316.132 167.662L318.601 149.676L316.515 149.365Z" fill="white"/>
<path d="M251.568 80.0614C248.191 77.1384 246.943 73.7364 247.346 68.7834C247.396 67.9004 247.531 66.9834 247.705 65.9854C247.732 65.7434 247.794 65.4954 247.835 65.2324L245.699 66.0574L241.203 67.7684C241.316 69.6034 241.369 71.4124 241.269 73.1784C241.134 76.3884 240.52 79.4714 239.031 82.4474C240.216 88.6744 252.753 86.2874 251.568 80.0614Z" fill="#FF9985"/>
<path d="M241.283 73.5394C243.76 73.7414 245.702 71.8064 247.346 68.7824C247.396 67.8994 247.531 66.9824 247.705 65.9844L245.699 66.0574L241.203 67.7684C241.316 69.6034 241.369 71.4124 241.269 73.1784C241.292 73.3014 241.277 73.4124 241.283 73.5394Z" fill="#FF8D76"/>
<path d="M248.854 69.1725C250.367 68.8645 251.558 67.3995 251.552 65.8565C253.221 66.3715 255.134 65.7745 256.348 64.5175C257.562 63.2615 258.095 61.4305 257.935 59.6915C257.896 59.2705 257.821 58.8345 257.953 58.4335C258.078 58.0535 258.369 57.7585 258.612 57.4405C259.586 56.1655 259.797 54.4215 259.454 52.8535C259.112 51.2865 258.271 49.8705 257.309 48.5865C254.844 45.2965 251.483 42.6845 247.687 41.1075C244.952 39.9715 241.928 39.3215 239.643 37.4355C238.243 36.2805 237.224 34.7375 236.273 33.1925C236.122 32.9475 235.941 32.6795 235.659 32.6265C235.329 32.5645 235.033 32.8235 234.806 33.0705C233.399 34.5975 232.336 36.4395 231.715 38.4205C229.872 37.7175 227.714 37.0355 226.022 38.0495C224.76 38.8065 224.148 40.3335 224.021 41.8005C223.868 43.5585 224.328 45.4145 225.501 46.7325C223.992 45.8715 221.879 46.2945 220.817 47.6695C220.147 48.5375 219.901 49.6775 219.952 50.7725C220.064 53.1765 221.624 55.4555 223.823 56.4305C222.685 56.5535 221.974 57.8685 222.136 59.0015C222.297 60.1345 223.086 61.0745 223.929 61.8475C226.605 64.3015 230.101 65.7145 233.66 66.4325C236.759 67.0575 239.858 67.0585 242.994 67.2565C245.165 67.3915 246.669 69.6175 248.854 69.1725Z" fill="#524A87"/>
<path d="M261.3 92.008L266.044 115.385L242.557 121.093C236.589 110.017 232.443 98.905 232.156 93.447L222.403 99.221C218.326 101.635 213.145 101.064 209.691 97.821L199.207 87.976L203.98 82.423L210.09 87.478C213.57 90.357 218.487 90.727 222.358 88.402L234.141 81.325L241.15 78.654L249.404 77.082L259.085 77.127L261.3 92.008Z" fill="#524A87"/>
<path d="M203.981 82.4256C193.578 77.8926 186.7 88.9286 199.21 87.9786L203.981 82.4256Z" fill="#FF9985"/>
<path d="M247.703 54.0566C251.846 52.0396 254.256 57.5896 248.35 60.5776C246.968 68.8196 243.525 71.6656 238.816 72.7936C235.095 73.6856 231.232 71.7596 229.658 68.2726C225.827 59.7836 227.97 52.6756 236.974 47.1516C241.408 47.0486 245.3 48.4656 247.703 54.0566Z" fill="#FF9985"/>
<path d="M259.084 77.1289C272.206 100.262 269.998 116.739 233.301 118.241V111.918C246.486 108.82 259.286 105.428 255.973 89.7829L259.084 77.1289Z" fill="#6B5CB0"/>
<path d="M233.3 111.916C216.13 107.413 224.476 118.239 233.3 118.239V111.916Z" fill="#FF9985"/>
<path d="M266.042 115.387C276.211 143.065 292.693 143.315 313.522 141.325L304.246 163.524C284.112 164.023 267.444 155.547 257.542 129.545L254.425 130.742C258.489 151.254 270.786 164.955 285.146 175.492L266.036 186.239C247.783 171.815 241.284 150.505 242.556 121.095L266.042 115.387Z" fill="#9572FC"/>
<path d="M231.438 65.2324C231.438 70.2794 242.146 70.2794 242.146 65.2324H231.438Z" fill="white"/>
<path d="M306.633 370.506C306.708 364.472 306.975 358.413 308.111 352.486C309.247 346.559 311.28 340.74 314.661 335.741C316.426 333.13 318.735 330.642 321.784 329.845C323.062 329.511 324.477 329.51 325.648 330.122C326.905 330.779 327.74 332.076 328.1 333.448C328.46 334.82 328.394 336.268 328.211 337.674C327.681 341.743 326.201 345.62 324.709 349.443C323.886 351.553 323.055 353.66 322.218 355.764C323.697 353.718 325.604 351.982 327.78 350.702C328.16 350.478 328.654 350.271 329.016 350.524C329.187 350.644 329.283 350.843 329.353 351.04C329.87 352.495 329.309 354.124 328.473 355.421C327.637 356.719 326.53 357.834 325.779 359.183C327.786 357.97 330.146 357.35 332.49 357.422C332.787 357.431 333.097 357.455 333.354 357.606C333.515 357.701 333.645 357.84 333.758 357.989C334.487 358.94 334.587 360.258 334.302 361.422C334.017 362.586 333.392 363.634 332.769 364.658C331.208 367.224 330.107 368.545 327.524 370.078L306.633 370.506Z" fill="#A3E5C5"/>
<path d="M416.913 358.394H389.408C389.169 357.314 389.38 355.956 389.549 354.863C390.285 350.096 391.023 345.316 392.326 340.672C392.935 338.501 393.684 336.33 394.991 334.493C396.447 332.447 398.58 330.892 400.972 330.129C401.44 329.98 402 329.876 402.382 330.184C402.628 330.383 402.733 330.705 402.816 331.011C404.171 336.014 402.912 341.31 401.653 346.338C402.55 344.913 403.728 343.666 405.098 342.689C405.632 342.308 406.27 341.953 406.912 342.092C407.836 342.291 408.249 343.374 408.361 344.313C408.593 346.255 408.2 348.267 407.255 349.98C408.06 348.895 409.225 348.081 410.521 347.7C410.969 347.568 411.503 347.503 411.862 347.802C412.07 347.976 412.176 348.241 412.258 348.5C412.865 350.436 412.44 352.664 411.162 354.241C412.858 353.345 414.713 352.749 416.614 352.49C416.826 352.461 417.058 352.44 417.24 352.553C417.419 352.664 417.504 352.876 417.567 353.077C418.167 354.975 418.088 356.783 416.913 358.394Z" fill="#71BAB0"/>
<path d="M41.5564 376.947C41.5634 369.359 41.2314 361.558 38.2004 354.601C36.6644 351.076 34.4794 347.878 32.3074 344.705C29.4104 340.471 26.3724 336.102 21.9564 333.49C19.8394 333.9 18.3314 335.926 17.8824 338.035C17.4334 340.144 17.8364 342.332 18.2894 344.44C19.4944 350.045 21.0544 355.574 22.9574 360.983C20.5664 359.233 17.8884 357.876 15.0634 356.981C14.5374 356.815 13.9854 356.662 13.4404 356.749C12.7164 356.864 12.1214 357.383 11.6604 357.953C9.73541 360.33 9.63041 364.006 11.4174 366.489C12.8474 368.476 15.2734 369.673 16.3684 371.862C13.9434 370.535 11.1174 369.954 8.36641 370.215C7.76941 372.853 9.08141 375.688 11.3834 377.109L41.5564 376.947Z" fill="#71BAB0"/>
<path d="M91.0372 385.929C88.2662 378.538 87.9992 370.234 90.2882 362.68C90.9402 360.53 91.8142 358.402 93.2582 356.681C94.7022 354.959 96.7852 353.676 99.0312 353.599C100.149 353.561 101.336 353.856 102.111 354.663C102.965 355.553 103.166 356.87 103.266 358.099C103.668 363.059 103.09 368.096 101.574 372.836C102.953 370.465 105.706 368.963 108.446 369.087C108.79 369.103 109.157 369.151 109.419 369.374C109.645 369.566 109.759 369.857 109.85 370.139C110.639 372.572 110.391 375.323 109.179 377.575C110.971 375.983 113.386 375.111 115.781 375.192C116.176 375.205 116.581 375.247 116.934 375.423C117.308 375.61 117.595 375.935 117.822 376.285C118.659 377.573 118.764 379.229 118.444 380.731C118.124 382.233 117.417 383.621 116.717 384.988C116.154 386.087 115.225 387.113 113.99 387.113L91.0372 385.929Z" fill="#A3E5C5"/>
<path d="M154.114 402.038C154.36 396.301 152.79 390.621 152.813 384.879C152.848 376.219 156.521 367.924 161.386 360.759C162.257 359.476 163.248 358.156 164.693 357.591C165.075 357.442 165.512 357.353 165.89 357.512C166.208 357.646 166.432 357.932 166.626 358.217C168.147 360.45 168.674 363.239 168.616 365.94C168.559 368.641 167.958 371.297 167.396 373.939C166.038 380.326 164.89 386.757 163.954 393.219C165.227 390.943 166.517 388.643 168.297 386.737C170.076 384.831 172.421 383.329 175.017 383.078C175.447 383.036 175.916 383.04 176.265 383.295C176.596 383.538 176.744 383.954 176.851 384.35C177.722 387.576 176.945 391.203 174.829 393.789C176.862 392.334 179.353 391.528 181.853 391.518C182.169 391.517 182.5 391.532 182.776 391.686C183.225 391.937 183.411 392.483 183.504 392.989C184.103 396.238 182.462 399.473 180.591 402.196L154.114 402.038Z" fill="#A3E5C5"/>
</svg>
