<svg width="413" height="361" viewBox="0 0 413 361" fill="none" xmlns="http://www.w3.org/2000/svg">
<path d="M184.64 138.71H18.4404V261.31H184.64V138.71Z" fill="#F5F9FF"/>
<path d="M184.64 138.71H18.4404V154H184.64V138.71Z" fill="#D0DBF7"/>
<path d="M31.7803 146.71C31.7803 148.64 30.2103 150.21 28.2803 150.21C26.3503 150.21 24.7803 148.64 24.7803 146.71C24.7803 144.78 26.3503 143.21 28.2803 143.21C30.2103 143.21 31.7803 144.78 31.7803 146.71Z" fill="#F2F2F2"/>
<path d="M43.5605 146.71C43.5605 148.64 41.9905 150.21 40.0605 150.21C38.1305 150.21 36.5605 148.64 36.5605 146.71C36.5605 144.78 38.1305 143.21 40.0605 143.21C41.9905 143.21 43.5605 144.78 43.5605 146.71Z" fill="#F2F2F2"/>
<path d="M55.3506 146.71C55.3506 148.64 53.7806 150.21 51.8506 150.21C49.9206 150.21 48.3506 148.64 48.3506 146.71C48.3506 144.78 49.9206 143.21 51.8506 143.21C53.7806 143.21 55.3506 144.78 55.3506 146.71Z" fill="#F2F2F2"/>
<path d="M129.91 187.35L121.56 178.99L101.54 199.01L81.5202 178.99L73.1602 187.35L93.1802 207.37L73.1602 227.38L81.5202 235.74L101.54 215.72L121.56 235.74L129.91 227.38L109.89 207.37L129.91 187.35Z" fill="#E3EBFC"/>
<path d="M388.66 61.3799H222.46V183.98H388.66V61.3799Z" fill="#F5F9FF"/>
<path d="M388.66 61.3799H222.46V76.6699H388.66V61.3799Z" fill="#D0DBF7"/>
<path d="M235.8 69.3799C235.8 71.3099 234.23 72.8799 232.3 72.8799C230.37 72.8799 228.8 71.3099 228.8 69.3799C228.8 67.4499 230.37 65.8799 232.3 65.8799C234.24 65.8799 235.8 67.4499 235.8 69.3799Z" fill="#F2F2F2"/>
<path d="M247.59 69.3799C247.59 71.3099 246.02 72.8799 244.09 72.8799C242.16 72.8799 240.59 71.3099 240.59 69.3799C240.59 67.4499 242.16 65.8799 244.09 65.8799C246.02 65.8799 247.59 67.4499 247.59 69.3799Z" fill="#F2F2F2"/>
<path d="M259.37 69.3799C259.37 71.3099 257.8 72.8799 255.87 72.8799C253.94 72.8799 252.37 71.3099 252.37 69.3799C252.37 67.4499 253.94 65.8799 255.87 65.8799C257.8 65.8799 259.37 67.4499 259.37 69.3799Z" fill="#F2F2F2"/>
<path d="M333.94 110.02L325.58 101.67L305.56 121.68L285.54 101.67L277.19 110.02L297.21 130.04L277.19 150.06L285.54 158.41L305.56 138.4L325.58 158.41L333.94 150.06L313.92 130.04L333.94 110.02Z" fill="#E3EBFC"/>
<path d="M205.34 360.48C317.548 360.48 408.51 352.618 408.51 342.92C408.51 333.222 317.548 325.36 205.34 325.36C93.1322 325.36 2.16992 333.222 2.16992 342.92C2.16992 352.618 93.1322 360.48 205.34 360.48Z" fill="#EDF0FC"/>
<path d="M155.79 63.4201C154.24 60.1801 154.32 57.0401 156.03 53.9901L156.86 52.5401C157.67 51.2201 158.19 50.2001 158.42 49.4801C158.65 48.7701 158.58 48.0501 158.24 47.3101C157.36 45.4701 155.38 45.2801 152.29 46.7501C150.86 47.4301 149.47 48.3301 148.13 49.4401C146.79 50.5501 145.6 51.7801 144.56 53.1301L141.06 45.7901C143.35 43.0601 146.3 40.8301 149.93 39.1001C153.84 37.2301 157.33 36.5701 160.4 37.1201C163.47 37.6701 165.69 39.3801 167.07 42.2801C167.84 43.9001 168.1 45.3901 167.85 46.7401C167.6 48.0901 166.89 49.8001 165.73 51.8801C164.96 53.3001 164.42 54.3701 164.1 55.0901C163.78 55.8101 163.62 56.5201 163.62 57.2201C163.62 57.9201 163.82 58.6901 164.22 59.5101L164.65 60.4201L156.26 64.4201L155.79 63.4201ZM162.22 74.3701C160.97 73.9301 160.06 73.0901 159.47 71.8501C158.86 70.5801 158.78 69.3301 159.23 68.1001C159.68 66.8701 160.54 65.9501 161.81 65.3501C163.05 64.7601 164.31 64.6801 165.58 65.1001C166.86 65.5301 167.79 66.3601 168.38 67.6001C168.97 68.8401 169.03 70.0901 168.56 71.3501C168.09 72.6101 167.23 73.5301 165.99 74.1301C164.72 74.7301 163.46 74.8201 162.22 74.3701Z" fill="#E2E6FF"/>
<path d="M196.54 35.41C198.63 30.42 202.24 27.36 207.37 26.23L209.83 25.71C212.13 25.29 213.8 24.86 214.82 24.4C215.85 23.94 216.6 23.15 217.07 22.02C218.26 19.18 216.48 16.77 211.73 14.78C209.53 13.86 207.13 13.2 204.54 12.8C201.95 12.4 199.37 12.3 196.82 12.5L201.55 1.19995C206.91 1.02995 212.38 2.10995 217.96 4.44995C223.98 6.96995 228.22 10.23 230.68 14.22C233.15 18.22 233.45 22.44 231.58 26.89C230.53 29.39 229.13 31.17 227.36 32.24C225.59 33.31 222.96 34.23 219.47 35.02C217.11 35.58 215.36 36.04 214.23 36.41C213.1 36.77 212.14 37.3 211.36 38.01C210.57 38.72 209.92 39.71 209.38 40.98L208.8 42.38L195.89 36.97L196.54 35.41ZM190.68 53.61C189.93 51.77 189.95 49.9 190.75 47.99C191.57 46.03 192.89 44.69 194.72 43.96C196.55 43.23 198.44 43.28 200.4 44.1C202.31 44.9 203.66 46.23 204.47 48.09C205.27 49.95 205.27 51.83 204.47 53.74C203.67 55.65 202.33 56.97 200.44 57.7C198.55 58.43 196.65 58.4 194.75 57.6C192.79 56.78 191.44 55.45 190.68 53.61Z" fill="#E2E6FF"/>
<path d="M406.05 215.37V209.63H402.23V215.37H396.49V219.19H402.23V224.93H406.05V219.19H411.79V215.37H406.05Z" fill="#CAD2F9"/>
<path d="M370 31.5998V22.8398H364.18V31.5998H355.42V37.4198H364.18V46.1798H370V37.4198H378.75V31.5998H370Z" fill="#CAD2F9"/>
<path d="M354.13 201.08V196.9H351.35V201.08H347.17V203.86H351.35V208.04H354.13V203.86H358.31V201.08H354.13Z" fill="#CAD2F9"/>
<path d="M115.7 55.6497V51.4697H112.92V55.6497H108.74V58.4297H112.92V62.6097H115.7V58.4297H119.89V55.6497H115.7Z" fill="#CAD2F9"/>
<path d="M83.4699 27.9998V22.2598H79.6599V27.9998H73.9199V31.8098H79.6599V37.5598H83.4699V31.8098H89.2099V27.9998H83.4699Z" fill="#CAD2F9"/>
<path d="M272 39.72C272 40.93 271.02 41.9 269.82 41.9C268.61 41.9 267.64 40.92 267.64 39.72C267.64 38.51 268.62 37.54 269.82 37.54C271.03 37.54 272 38.51 272 39.72Z" fill="#EEF1FF"/>
<path d="M280.94 2.18C280.94 3.39 279.96 4.36 278.76 4.36C277.55 4.36 276.58 3.38 276.58 2.18C276.58 0.97 277.56 0 278.76 0C279.97 0 280.94 0.98 280.94 2.18Z" fill="#EEF1FF"/>
<path d="M323.6 24.26C325.881 24.26 327.73 22.4109 327.73 20.13C327.73 17.8491 325.881 16 323.6 16C321.319 16 319.47 17.8491 319.47 20.13C319.47 22.4109 321.319 24.26 323.6 24.26Z" fill="#EEF1FF"/>
<path d="M410.69 175.42C410.69 176.63 409.71 177.6 408.51 177.6C407.3 177.6 406.33 176.62 406.33 175.42C406.33 174.21 407.31 173.24 408.51 173.24C409.71 173.24 410.69 174.22 410.69 175.42Z" fill="#EEF1FF"/>
<path d="M408.51 243.59C408.51 244.8 407.53 245.77 406.33 245.77C405.12 245.77 404.15 244.79 404.15 243.59C404.15 242.38 405.13 241.41 406.33 241.41C407.53 241.4 408.51 242.38 408.51 243.59Z" fill="#EEF1FF"/>
<path d="M76.1002 124.37C76.1002 125.58 75.1202 126.55 73.9202 126.55C72.7102 126.55 71.7402 125.57 71.7402 124.37C71.7402 123.16 72.7202 122.19 73.9202 122.19C75.1202 122.18 76.1002 123.16 76.1002 124.37Z" fill="#EEF1FF"/>
<path d="M38.0997 37.9499C40.3807 37.9499 42.2297 36.1009 42.2297 33.8199C42.2297 31.539 40.3807 29.6899 38.0997 29.6899C35.8188 29.6899 33.9697 31.539 33.9697 33.8199C33.9697 36.1009 35.8188 37.9499 38.0997 37.9499Z" fill="#EEF1FF"/>
<path d="M119.63 10.4999C119.63 11.7099 118.65 12.6799 117.45 12.6799C116.24 12.6799 115.27 11.6999 115.27 10.4999C115.27 9.2899 116.25 8.3199 117.45 8.3199C118.65 8.3099 119.63 9.2899 119.63 10.4999Z" fill="#EEF1FF"/>
<path d="M4.36 141.42C4.36 142.63 3.38 143.6 2.18 143.6C0.97 143.6 0 142.62 0 141.42C0 140.21 0.98 139.24 2.18 139.24C3.38 139.24 4.36 140.22 4.36 141.42Z" fill="#EEF1FF"/>
<path d="M4.36 257.77C4.36 258.98 3.38 259.95 2.18 259.95C0.97 259.95 0 258.97 0 257.77C0 256.56 0.98 255.59 2.18 255.59C3.38 255.59 4.36 256.56 4.36 257.77Z" fill="#EEF1FF"/>
<path d="M322.671 323.51C322.671 323.51 286.491 251.18 384.621 203.18C384.621 203.18 392.141 306.25 322.671 323.51Z" fill="#6E7FDD"/>
<path d="M326.841 314.3C326.821 303.96 328.981 293.69 331.951 283.78C332.331 282.54 332.671 281.29 333.091 280.06L334.421 276.4L335.751 272.74L337.261 269.15C339.201 264.33 341.631 259.74 343.931 255.09L347.841 248.36C349.101 246.09 350.531 243.93 351.991 241.78C353.461 239.64 354.851 237.45 356.381 235.37C357.941 233.3 359.531 231.25 361.121 229.21L363.511 226.15L366.081 223.24L371.251 217.46C372.101 216.49 373.041 215.6 373.961 214.7L376.741 212C378.601 210.21 380.471 208.44 382.361 206.69C380.741 208.7 379.111 210.69 377.461 212.66L374.981 215.6C374.151 216.58 373.311 217.54 372.561 218.59L367.881 224.69L365.521 227.72L363.331 230.87C361.881 232.97 360.411 235.07 358.931 237.14C357.491 239.25 356.191 241.45 354.821 243.59C351.971 247.82 349.621 252.36 347.061 256.76C342.281 265.76 338.061 275.05 334.571 284.63C331.151 294.24 328.281 304.1 326.841 314.3Z" fill="#B3C9F9"/>
<path opacity="0.1" d="M380.951 202.46C379.581 227.33 371.051 293.44 319.591 308.41C321.451 315.92 323.701 320.42 323.701 320.42C393.171 303.15 385.651 200.09 385.651 200.09C384.051 200.88 382.481 201.67 380.951 202.46Z" fill="#0046A0"/>
<path d="M313.82 346.79C313.82 346.79 318.97 324.77 340.5 298.08C364.09 268.84 394.86 258.32 407.63 272.37C420.03 286.01 409.49 304.86 377.56 314.49C345.63 324.12 327.58 328.27 313.82 346.79Z" fill="#FFCF74"/>
<path d="M397.52 280.03C390.21 282.92 383.14 286.27 376.19 289.82C369.26 293.41 362.5 297.3 356.04 301.65C349.56 305.96 343.4 310.73 337.68 316C331.98 321.29 326.76 327.11 322.25 333.55C324.07 330.06 326.22 326.75 328.54 323.55C330.94 320.42 333.49 317.37 336.28 314.57C341.82 308.91 348.05 303.95 354.61 299.53C357.92 297.36 361.28 295.29 364.73 293.36C368.2 291.47 371.71 289.66 375.31 288.04C382.49 284.75 389.9 281.98 397.52 280.03Z" fill="#F9AB43"/>
<path opacity="0.1" d="M407.63 272.37C406.94 271.61 406.18 270.93 405.39 270.31C395.03 295.68 364.77 314.05 329.02 314.09C317.05 333.03 313.82 346.78 313.82 346.78C327.58 328.26 345.63 324.11 377.56 314.48C409.49 304.86 420.03 286.01 407.63 272.37Z" fill="#0046A0"/>
<path d="M128.5 334.42C128.5 334.42 54.1802 366.31 11.9902 265.55C11.9902 265.55 115.32 264.06 128.5 334.42Z" fill="#6E7FDD"/>
<path d="M122.561 330.93C112.241 330.35 102.111 327.59 92.3906 324.04C91.1806 323.59 89.9406 323.17 88.7406 322.68L85.1706 321.14L81.6006 319.59L78.1106 317.88C73.4106 315.66 68.9706 312.96 64.4606 310.4L57.9706 306.1C55.7806 304.71 53.7006 303.15 51.6506 301.58C49.6006 299.99 47.5006 298.47 45.5006 296.82C43.5306 295.14 41.5706 293.44 39.6306 291.73L36.7206 289.17L33.9606 286.44L28.4906 280.94C27.5706 280.04 26.7406 279.05 25.8906 278.07L23.3606 275.14C21.6806 273.18 20.0306 271.2 18.3906 269.22C20.3006 270.96 22.2006 272.7 24.0706 274.46L26.8606 277.11C27.7906 277.99 28.7006 278.89 29.7006 279.7L35.5106 284.72L38.3906 287.25L41.4006 289.62C43.4106 291.19 45.4206 292.78 47.4006 294.38C49.4206 295.94 51.5406 297.36 53.6006 298.86C57.6606 301.96 62.0506 304.56 66.2906 307.38C74.9906 312.68 84.0206 317.43 93.3806 321.47C102.801 325.46 112.461 328.9 122.561 330.93Z" fill="#B3C9F9"/>
<path opacity="0.1" d="M14.0802 270.38C38.8302 273.21 104.33 285.58 116.27 337.82C123.87 336.41 128.5 334.42 128.5 334.42C115.32 264.06 11.9902 265.55 11.9902 265.55C12.6802 267.19 13.3802 268.8 14.0802 270.38Z" fill="#0046A0"/>
<path d="M97.9397 307.27C97.9397 307.27 97.5797 284.65 82.1897 254.01C65.3297 220.43 37.4997 203.63 22.0397 214.66C7.0297 225.36 13.3297 246.02 42.4897 262.2C71.6497 278.37 88.4097 286.25 97.9397 307.27Z" fill="#FFCF74"/>
<path d="M30.29 224.28C36.82 228.65 43.02 233.43 49.06 238.37C55.07 243.35 60.86 248.58 66.24 254.2C71.66 259.78 76.67 265.75 81.14 272.11C85.59 278.49 89.45 285.28 92.5 292.54C91.46 288.75 90.06 285.05 88.47 281.43C86.79 277.86 84.95 274.34 82.81 271.01C78.6 264.3 73.56 258.13 68.09 252.43C65.32 249.61 62.47 246.87 59.5 244.26C56.51 241.68 53.46 239.16 50.29 236.82C43.98 232.08 37.32 227.81 30.29 224.28Z" fill="#F9AB43"/>
<path opacity="0.1" d="M22.03 214.66C22.87 214.06 23.75 213.56 24.66 213.13C29.4 240.12 55.09 264.49 90.02 272.11C97.71 293.16 97.94 307.28 97.94 307.28C88.42 286.26 71.66 278.38 42.49 262.2C13.32 246.01 7.02996 225.36 22.03 214.66Z" fill="#0046A0"/>
<path d="M303.79 329.17C302.98 334.52 297.61 338.9 291.84 338.9H121.35C115.59 338.9 110.15 334.53 109.27 329.19L81.0396 157.99C80.1596 152.65 84.1496 148.28 89.9196 148.28H320.66C326.42 148.28 330.48 152.66 329.67 158.01L303.79 329.17Z" fill="#F9AB43"/>
<path d="M261.009 91.0698H117.439V293.32H292.999V123.54L261.009 91.0698Z" fill="#C2CEF2"/>
<path d="M261.01 91.0698L293.24 123.3H261.01V91.0698Z" fill="#7997F2"/>
<path d="M253.959 155.03L239.639 140.71L205.339 175.01L171.039 140.71L156.729 155.03L191.019 189.32L156.729 223.62L171.039 237.94L205.339 203.64L239.639 237.94L253.959 223.62L219.66 189.32L253.959 155.03Z" fill="#AFC2E8"/>
<path d="M222 207.02C217.47 207.03 212.68 203.49 211.34 199.16L204.76 177.83C203.43 173.5 198.63 169.96 194.1 169.96H77.1597C72.6297 169.96 69.5797 173.61 70.3697 178.06L98.9197 338.92C99.7097 343.38 104.06 347.02 108.59 347.02H311.18C315.71 347.02 319.99 343.36 320.7 338.89L340.34 214.98C341.05 210.51 337.92 206.86 333.4 206.86L222 207.02Z" fill="#FFCF74"/>
<path d="M193.509 282.41C193.509 276.15 195.999 271.27 200.969 267.77L203.359 266.11C205.629 264.64 207.209 263.43 208.099 262.47C208.989 261.52 209.439 260.34 209.439 258.93C209.439 255.37 206.459 253.59 200.509 253.59C197.749 253.59 194.889 253.96 191.949 254.7C189.009 255.44 186.209 256.48 183.569 257.83V243.64C189.219 241.06 195.539 239.77 202.539 239.77C210.089 239.77 216.079 241.35 220.489 244.51C224.909 247.67 227.119 252.04 227.119 257.63C227.119 260.76 226.409 263.29 224.999 265.23C223.589 267.16 221.189 269.33 217.819 271.72C215.549 273.38 213.889 274.65 212.849 275.54C211.809 276.43 211.019 277.43 210.499 278.53C209.979 279.64 209.719 280.99 209.719 282.58V284.33H193.509V282.41ZM195.399 304.46C193.769 302.83 192.959 300.82 192.959 298.43C192.959 295.98 193.769 293.95 195.399 292.35C197.019 290.75 199.069 289.96 201.519 289.96C203.909 289.96 205.959 290.77 207.639 292.4C209.329 294.03 210.169 296.04 210.169 298.43C210.169 300.82 209.319 302.83 207.639 304.46C205.949 306.09 203.909 306.9 201.519 306.9C199.069 306.9 197.019 306.08 195.399 304.46Z" fill="white"/>
<path opacity="0.1" d="M333.389 206.86L320.719 206.88C320.999 209.8 321.149 212.74 321.149 215.71C321.149 282.14 250.049 336 162.339 336C138.839 336 116.539 332.13 96.4795 325.2L98.9195 338.94C99.7095 343.4 104.059 347.04 108.589 347.04H311.179C315.709 347.04 319.989 343.38 320.699 338.91L340.339 214.98C341.049 210.5 337.919 206.85 333.389 206.86Z" fill="#0046A0"/>
<g opacity="0.3">
<path d="M90.0295 193.84C90.6295 197.88 91.2295 201.92 91.8395 205.95C93.2695 215.56 94.7095 225.17 96.1395 234.78C97.8895 246.48 99.6295 258.18 101.379 269.88C102.879 279.93 104.379 289.97 105.869 300.02C106.369 303.36 106.869 306.7 107.359 310.03C107.589 311.6 107.729 313.22 108.069 314.77C108.079 314.84 108.089 314.91 108.099 314.97C108.309 316.35 110.039 317.1 111.259 316.77C112.729 316.37 113.259 314.99 113.059 313.61C112.459 309.57 111.859 305.53 111.249 301.5C109.819 291.89 108.379 282.28 106.949 272.67C105.199 260.97 103.459 249.27 101.709 237.57C100.209 227.52 98.7095 217.48 97.2195 207.43C96.7195 204.09 96.2195 200.75 95.7295 197.42C95.4995 195.85 95.3595 194.23 95.0195 192.68C95.0095 192.61 94.9995 192.54 94.9895 192.48C94.7795 191.1 93.0495 190.35 91.8295 190.68C90.3495 191.08 89.8195 192.46 90.0295 193.84Z" fill="white"/>
</g>
<path d="M372.35 104.78C356.54 104.78 343.73 117.6 343.73 133.4C343.73 140.47 346.29 146.93 350.54 151.92L349.34 166.66L363.02 160.46C365.95 161.47 369.09 162.03 372.36 162.03C388.17 162.03 400.98 149.21 400.98 133.41C400.98 117.61 388.16 104.78 372.35 104.78Z" fill="#EB725F"/>
<path d="M370.37 148.06C369.85 147.54 369.59 146.89 369.59 146.12C369.59 145.35 369.85 144.7 370.37 144.18C370.89 143.66 371.54 143.39 372.31 143.39C373.08 143.39 373.73 143.65 374.27 144.18C374.81 144.7 375.08 145.35 375.08 146.12C375.08 146.89 374.81 147.54 374.27 148.06C373.73 148.58 373.08 148.85 372.31 148.85C371.54 148.84 370.89 148.58 370.37 148.06ZM368.75 115.86H375.96L374.62 138.91H370.09L368.75 115.86Z" fill="#F2F2F2"/>
<path opacity="0.1" d="M356.67 148.57C353.56 148.57 350.53 148.3 347.61 147.78C348.47 149.25 349.45 150.63 350.54 151.92L349.34 166.66L363.02 160.46C365.95 161.47 369.09 162.03 372.36 162.03C388.17 162.03 400.98 149.21 400.98 133.41C400.98 129.58 400.22 125.93 398.86 122.59C393.12 137.66 376.4 148.57 356.67 148.57Z" fill="#0046A0"/>
<path d="M79.0898 97.0402V69.9002C79.0898 66.6402 76.4198 63.9702 73.1598 63.9702H23.6898C20.4298 63.9702 17.7598 66.6402 17.7598 69.9002V104.1C17.7598 107.36 20.4298 110.03 23.6898 110.03H67.9798H73.1598H93.3598L79.0898 97.0402Z" fill="#F9AB43"/>
<path d="M40.1594 83.19C40.1594 85.79 38.6494 87.9 36.7794 87.9C34.9094 87.9 33.3994 85.79 33.3994 83.19C33.3994 80.59 34.9094 78.48 36.7794 78.48C38.6494 78.47 40.1594 80.58 40.1594 83.19Z" fill="white"/>
<path d="M62.6194 83.19C62.6194 85.79 61.1094 87.9 59.2394 87.9C57.3694 87.9 55.8594 85.79 55.8594 83.19C55.8594 80.59 57.3694 78.48 59.2394 78.48C61.1094 78.47 62.6194 80.58 62.6194 83.19Z" fill="white"/>
<path d="M40.2694 96.37C41.4294 95.1 43.0394 94.1 44.6394 93.53C48.6994 92.07 52.6194 93.6 55.7094 96.37C56.5394 97.11 57.7594 95.89 56.9294 95.15C53.4994 92.07 49.0594 90.26 44.4994 91.75C42.4994 92.4 40.4694 93.58 39.0394 95.15C38.2994 95.97 39.5094 97.19 40.2694 96.37Z" fill="white"/>
<path opacity="0.1" d="M79.0901 97.0402V69.9002C79.0901 66.6402 76.4201 63.9702 73.1601 63.9702H68.0901C68.9701 67.1902 69.4401 70.5402 69.4401 73.9702C69.4401 88.3902 61.2501 101.3 48.3301 110.03H67.9801H73.1601H93.3601L79.0901 97.0402Z" fill="#0046A0"/>
<path d="M250.04 249.05C234.18 264.91 234.18 290.64 250.04 306.5C265.9 322.36 291.63 322.36 307.49 306.5C323.35 290.64 323.35 264.91 307.49 249.05C291.62 233.19 265.9 233.19 250.04 249.05ZM302.83 301.84C289.54 315.13 267.99 315.13 254.69 301.84C241.4 288.55 241.4 267 254.69 253.7C267.98 240.41 289.53 240.41 302.83 253.7C316.12 267 316.12 288.55 302.83 301.84Z" fill="#EB725F"/>
<path opacity="0.3" d="M278.76 311.82C297.56 311.82 312.8 296.58 312.8 277.78C312.8 258.98 297.56 243.74 278.76 243.74C259.96 243.74 244.72 258.98 244.72 277.78C244.72 296.58 259.96 311.82 278.76 311.82Z" fill="white"/>
<path d="M306.386 300.314L301.295 305.405L347.355 351.466L352.447 346.375L306.386 300.314Z" fill="#6E7FDD"/>
<path d="M306.388 300.322L301.297 305.413L318.26 322.376L323.351 317.285L306.388 300.322Z" fill="#EB725F"/>
<path d="M258.939 263.78C260.229 260.05 263.059 257.04 266.469 254.95C269.899 252.87 273.959 251.76 278.029 251.76C282.099 251.75 286.169 252.86 289.599 254.94C293.009 257.03 295.839 260.05 297.119 263.78C293.399 262.52 290.249 261.53 287.119 260.92C284.019 260.29 281.029 260 278.029 259.99C275.029 260 272.029 260.28 268.929 260.91C265.809 261.52 262.659 262.52 258.939 263.78Z" fill="white"/>
</svg>
